<svg width="24" height="24" viewBox="0 0 24 24" fill="none" xmlns="http://www.w3.org/2000/svg">
<g clip-path="url(#clip0_27_4)">
<path d="M11.1713 15.9067C11.2868 15.9067 11.3979 15.8844 11.5046 15.84C11.6113 15.7867 11.6957 15.7333 11.7579 15.68L11.8379 15.6133V15.5867L12.0512 12.5467C10.7801 12.5467 10.1446 13.2044 10.1446 14.52C10.1446 15.4444 10.4868 15.9067 11.1713 15.9067ZM11.2513 22.4133C7.88236 22.4133 5.34903 21.6667 3.65125 20.1733C1.95347 18.68 1.10458 16.5333 1.10458 13.7333C1.10458 11.76 1.39347 10.0133 1.97125 8.49333C2.54903 6.97333 3.35347 5.74222 4.38458 4.8C5.42458 3.85778 6.63347 3.14667 8.01125 2.66667C9.38903 2.18667 10.9046 1.94667 12.5579 1.94667C18.1846 1.94667 20.9979 4.74222 20.9979 10.3333C20.9979 12.6978 20.4868 14.5644 19.4646 15.9333C18.4424 17.2933 16.949 17.9733 14.9846 17.9733C14.7357 17.9733 14.509 17.9644 14.3046 17.9467C14.1001 17.9289 13.9179 17.8889 13.7579 17.8267C13.6068 17.7644 13.4824 17.72 13.3846 17.6933C13.2957 17.6578 13.1979 17.5867 13.0913 17.48C12.9935 17.3644 12.9313 17.2933 12.9046 17.2667C12.8779 17.24 12.8157 17.1556 12.7179 17.0133C12.629 16.8711 12.5801 16.7956 12.5712 16.7867L12.1579 17.12C11.8912 17.3422 11.4824 17.5644 10.9312 17.7867C10.3801 18.0089 9.82458 18.12 9.26458 18.12C8.91792 18.12 8.57125 18.0622 8.22458 17.9467C7.87792 17.8311 7.54458 17.6578 7.22458 17.4267C6.91347 17.1867 6.66014 16.8622 6.46458 16.4533C6.26903 16.0444 6.17125 15.5778 6.17125 15.0533C6.17125 14.4667 6.26903 13.9422 6.46458 13.48C6.66903 13.0089 6.94458 12.6267 7.29125 12.3333C7.63792 12.04 8.01125 11.7911 8.41125 11.5867C8.81125 11.3822 9.25125 11.2311 9.73125 11.1333C10.2112 11.0356 10.6379 10.9689 11.0112 10.9333C11.3935 10.8889 11.7757 10.8667 12.1579 10.8667C12.1757 10.6711 12.1846 10.5333 12.1846 10.4533C12.1846 9.96444 12.0468 9.60444 11.7712 9.37333C11.4957 9.13333 11.0601 9.01333 10.4646 9.01333C9.54903 9.01333 8.67347 9.23111 7.83792 9.66667L7.10458 7.85333C8.68681 6.86667 10.3179 6.37333 11.9979 6.37333C13.4646 6.37333 14.4601 6.64 14.9846 7.17333C15.509 7.70667 15.7712 8.65333 15.7712 10.0133L15.3979 16C15.6735 16 15.9224 15.9511 16.1446 15.8533C16.3757 15.7556 16.5712 15.6356 16.7313 15.4933C16.9001 15.3511 17.0468 15.1556 17.1713 14.9067C17.3046 14.6489 17.4113 14.4089 17.4912 14.1867C17.5712 13.9644 17.6379 13.6756 17.6912 13.32C17.7535 12.9556 17.7979 12.6533 17.8246 12.4133C17.8512 12.1644 17.8735 11.84 17.8912 11.44C17.909 11.0311 17.9179 10.7244 17.9179 10.52C17.9179 10.3067 17.9179 10.0044 17.9179 9.61333C17.9179 9.49778 17.9179 9.41333 17.9179 9.36C17.9179 8.53333 17.8646 7.84 17.7579 7.28C17.6601 6.71111 17.4868 6.20444 17.2379 5.76C16.989 5.30667 16.6379 4.95556 16.1846 4.70667C15.7312 4.44889 15.1624 4.25778 14.4779 4.13333C13.8024 4 12.9757 3.93333 11.9979 3.93333C10.5668 3.93333 9.35792 4.15556 8.37125 4.6C7.38458 5.03556 6.59347 5.70667 5.99792 6.61333C5.41125 7.52 4.98903 8.60889 4.73125 9.88C4.47347 11.1422 4.34458 12.6578 4.34458 14.4267C4.34458 15.2533 4.40681 15.9689 4.53125 16.5733C4.65569 17.1778 4.88236 17.7467 5.21125 18.28C5.54014 18.8222 5.98458 19.2578 6.54458 19.5867C7.10458 19.9244 7.82903 20.1867 8.71792 20.3733C9.60681 20.5689 10.6601 20.6667 11.8779 20.6667C12.8201 20.6667 13.8113 20.6089 14.8513 20.4933L14.6512 22.2667C13.869 22.3644 12.7357 22.4133 11.2513 22.4133Z" fill="#19D110"/>
</g>
<defs>
<clipPath id="clip0_27_4">
<rect width="24" height="24" rx="2" fill="white"/>
</clipPath>
</defs>
</svg>
